<?xml version="1.0" standalone="no"?>
<!DOCTYPE svg PUBLIC "-//W3C//DTD SVG 20010904//EN"
 "http://www.w3.org/TR/2001/REC-SVG-20010904/DTD/svg10.dtd">
<svg version="1.0" xmlns="http://www.w3.org/2000/svg"
 width="1500.000000pt" height="1000.000000pt" viewBox="0 0 1500.000000 1000.000000"
 preserveAspectRatio="xMidYMid meet">
<metadata>
Created by potrace 1.15, written by Peter Selinger 2001-2017
</metadata>
<g transform="translate(0.000000,1000.000000) scale(0.100000,-0.100000)"
fill="#000000" stroke="none">
<path d="M9338 9993 c28 -5 29 -23 1 -23 -11 0 -17 -4 -14 -10 10 -17 -45 -68
-81 -74 -19 -4 -34 -13 -34 -21 0 -10 -12 -13 -44 -11 -31 2 -40 -1 -33 -8 5
-6 29 -11 51 -10 45 2 82 -17 71 -36 -4 -7 -11 -8 -18 -1 -18 14 -127 25 -127
13 0 -6 8 -16 18 -21 15 -9 15 -10 -5 -11 -13 0 -26 0 -29 1 -4 0 -10 -5 -15
-13 -5 -8 -3 -15 8 -19 22 -7 26 -66 4 -79 -14 -8 -13 -9 5 -10 21 0 38 29 35
58 -1 6 5 12 14 12 15 0 19 10 16 42 -2 15 5 16 49 11 36 -4 54 -2 60 6 5 9 9
6 13 -9 4 -16 0 -24 -16 -30 -12 -5 -16 -9 -9 -9 6 -1 12 -9 12 -20 0 -27 -27
-86 -32 -71 -3 9 -9 11 -19 5 -8 -5 -22 -8 -31 -7 -20 4 -53 -42 -45 -63 4 -8
0 -27 -8 -42 -10 -19 -15 -22 -15 -10 0 10 -8 17 -20 17 -13 0 -20 -7 -20 -18
0 -11 -10 -24 -22 -30 -13 -6 -17 -11 -10 -11 6 -1 12 -8 12 -17 0 -8 -4 -12
-10 -9 -5 3 -10 1 -10 -4 0 -6 5 -11 12 -11 7 0 4 -6 -5 -12 -16 -12 -25 -49
-26 -107 -1 -16 -5 -21 -15 -18 -9 4 -17 -1 -21 -12 -3 -10 -14 -26 -25 -36
-11 -10 -20 -31 -20 -47 0 -15 -4 -28 -9 -28 -6 0 -10 -28 -10 -61 1 -40 -4
-65 -13 -71 -9 -6 -9 -11 -2 -14 6 -3 9 -15 7 -28 -6 -28 42 -84 51 -60 3 8
-1 14 -9 14 -8 0 -15 5 -15 11 0 7 10 9 24 7 16 -3 27 2 35 15 7 10 10 21 7
24 -3 3 2 20 11 37 15 28 17 29 24 11 7 -17 8 -16 8 8 1 15 5 27 11 27 5 0 7
-6 4 -14 -3 -7 2 -21 11 -30 16 -16 40 -23 32 -8 -8 13 10 47 24 47 8 1 13 6
12 13 -2 7 2 12 7 12 6 0 10 -5 10 -12 0 -6 3 -8 7 -5 10 11 32 -26 33 -55 0
-17 5 -28 14 -28 8 0 16 -5 18 -11 2 -6 25 -11 52 -12 39 -2 51 2 66 20 9 12
20 19 24 16 3 -4 6 10 6 30 0 20 4 37 9 37 5 0 7 9 4 21 -4 13 2 27 16 40 25
23 29 5 6 -27 -8 -12 -12 -24 -9 -27 18 -18 -137 -404 -213 -530 -3 -4 -19 3
-36 16 -18 13 -59 38 -91 57 -33 18 -83 53 -113 77 -29 24 -55 43 -58 43 -10
0 -5 -32 9 -58 40 -75 57 -231 45 -405 -3 -48 -6 -55 -16 -40 -7 9 -16 14 -20
10 -13 -14 29 -45 70 -51 23 -3 57 -9 74 -12 32 -6 123 22 123 39 0 4 6 7 14
7 8 0 17 11 20 24 8 31 64 49 227 73 102 15 125 15 188 3 39 -7 71 -17 71 -22
0 -5 4 -7 9 -4 25 16 29 -138 6 -219 -9 -29 -15 -57 -14 -61 7 -25 -48 -239
-69 -270 -4 -6 -20 -16 -37 -22 -29 -10 -29 -11 -8 -17 53 -16 41 -96 -21
-142 -24 -18 -48 -33 -54 -33 -16 0 -15 0 9 -57 11 -26 23 -79 26 -118 4 -38
12 -76 20 -83 7 -7 13 -21 13 -31 0 -10 11 -51 25 -91 14 -40 23 -76 20 -78
-3 -3 -5 0 -5 6 0 9 -4 9 -19 0 -15 -9 -28 -7 -67 10 -27 11 -49 24 -49 29 -1
19 -17 31 -49 35 -19 2 -32 0 -30 -4 3 -4 9 -8 15 -8 5 0 27 -13 50 -29 42
-31 127 -64 150 -59 7 2 14 -6 16 -17 3 -11 7 -27 10 -35 3 -8 5 -19 4 -24 -4
-17 30 -56 48 -56 19 0 31 -19 31 -48 0 -15 -2 -15 -10 -2 -7 11 -10 11 -10 2
0 -7 -4 -11 -9 -8 -10 7 -9 -12 9 -149 8 -55 16 -92 18 -82 4 17 5 18 22 2 13
-12 17 -25 14 -45 -6 -25 -2 -29 42 -44 61 -21 74 -20 104 5 14 11 19 17 11
13 -9 -5 -12 -3 -7 4 4 7 20 10 36 7 21 -4 32 0 40 12 9 15 10 14 4 -7 -6 -24
-6 -24 13 -7 19 16 20 16 31 -8 16 -35 16 -35 -13 -35 -14 0 -25 -4 -25 -10 0
-9 34 -15 73 -12 9 1 17 -2 17 -6 0 -16 -156 -34 -236 -28 -77 5 -78 5 -39 -9
22 -7 60 -14 85 -14 25 -1 61 -4 81 -7 31 -5 36 -9 31 -27 -4 -14 3 -27 24
-44 16 -12 23 -23 17 -23 -7 0 -13 -6 -13 -14 0 -9 9 -12 28 -8 26 4 26 4 7
-12 -28 -22 -88 -20 -132 5 -53 30 -133 91 -133 103 0 5 -3 6 -7 2 -4 -3 11
-25 33 -48 36 -38 31 -44 -9 -10 -30 27 -32 3 -1 -29 40 -44 158 -119 185
-119 12 0 20 -3 16 -6 -3 -3 3 -15 13 -26 11 -12 28 -39 39 -62 11 -23 26 -48
33 -56 25 -30 101 -84 122 -87 12 -1 35 -5 51 -8 50 -9 79 -12 113 -14 21 -1
32 -6 32 -16 0 -8 -3 -15 -7 -15 -41 0 -199 -37 -259 -60 -172 -66 -247 -165
-319 -420 -33 -115 -40 -133 -132 -337 -40 -89 -73 -164 -73 -168 0 -10 -108
-224 -127 -252 -11 -15 -23 -35 -27 -43 -3 -8 -19 -36 -34 -62 -15 -26 -39
-68 -53 -95 -66 -119 -165 -278 -173 -276 -5 1 -19 33 -31 70 -25 79 -44 118
-93 188 -18 27 -70 123 -114 212 l-80 162 -26 -17 c-25 -16 -25 -16 -13 6 6
12 16 22 21 22 5 0 2 15 -7 34 -15 33 -15 35 6 61 11 15 21 36 21 46 0 21 51
52 73 43 8 -3 31 10 52 31 l38 35 -6 108 c-7 107 2 154 22 123 7 -11 13 -7 25
17 9 17 17 44 17 59 1 17 3 21 6 11 6 -24 20 -23 33 2 6 11 15 18 20 15 5 -3
6 9 3 28 -3 23 1 43 16 68 12 20 19 44 15 53 -3 9 -2 16 4 16 16 0 24 33 10
42 -10 6 -9 8 4 8 11 0 15 5 12 14 -3 8 0 17 6 21 9 6 9 10 -1 17 -11 7 -11 8
1 7 20 -3 50 11 50 23 0 6 -7 7 -16 4 -12 -5 -15 -2 -10 10 3 8 6 24 6 35 0
10 5 19 10 19 6 0 10 -9 10 -19 0 -27 15 -34 30 -16 11 13 10 14 -3 9 -12 -4
-14 -1 -10 15 3 11 11 17 18 15 19 -8 40 35 26 49 -8 8 -11 5 -11 -11 0 -12
-4 -22 -9 -22 -4 0 -6 12 -3 26 3 19 10 24 22 21 14 -4 20 4 29 37 6 26 7 42
1 44 -6 2 -3 13 5 25 17 25 20 41 5 32 -5 -3 -10 -1 -10 4 0 6 8 11 18 11 13
0 14 2 4 9 -11 7 -11 9 2 14 25 10 19 29 -6 23 -20 -5 -20 -5 2 6 36 17 36 17
12 34 -22 15 -30 44 -12 44 6 0 10 -9 10 -20 0 -13 7 -20 18 -20 10 0 22 -4
28 -10 6 -6 10 -3 11 10 1 11 -4 20 -13 20 -8 0 -14 7 -14 15 0 8 6 15 13 15
7 0 13 8 13 18 1 9 4 33 8 53 6 28 4 38 -8 42 -15 6 -21 -8 -17 -40 1 -7 -2
-13 -8 -13 -5 0 -17 -3 -26 -7 -14 -5 -16 -2 -10 16 6 20 5 20 -20 9 l-27 -12
26 -23 c14 -12 21 -25 16 -28 -6 -3 -10 -1 -10 6 0 7 -3 9 -6 6 -11 -10 -13
-67 -3 -67 5 0 9 -7 9 -15 0 -8 -6 -12 -14 -9 -11 4 -17 -5 -22 -30 -3 -20
-11 -39 -17 -43 -7 -4 -8 0 -4 11 15 39 19 97 8 126 -9 27 -8 31 4 26 12 -4
13 -2 5 14 -11 21 -4 50 14 50 6 0 5 4 -4 9 -16 11 -33 4 -24 -10 3 -5 -4 -26
-15 -45 -25 -43 -29 -73 -6 -54 11 9 11 4 -3 -28 -9 -22 -18 -39 -19 -38 -1 1
-3 33 -4 72 -2 59 -6 70 -20 70 -14 0 -15 -3 -7 -13 6 -8 8 -17 4 -20 -4 -4
-12 -1 -17 7 -9 13 -10 13 -8 0 3 -34 -2 -59 -15 -73 -8 -8 -18 -31 -22 -52
-9 -50 -30 -91 -37 -73 -3 8 -6 5 -6 -7 -1 -17 -3 -17 -11 -5 -7 11 -10 8 -10
-16 0 -17 -6 -37 -14 -43 -7 -6 -16 -36 -20 -67 -5 -40 -13 -62 -29 -76 -15
-13 -18 -21 -9 -24 16 -8 15 -24 -2 -24 -18 0 -33 -44 -31 -92 1 -20 -3 -36
-8 -35 -5 1 -11 -16 -13 -38 -3 -22 -11 -60 -19 -85 -8 -25 -16 -54 -18 -65
-1 -11 -6 -26 -10 -32 -5 -7 -5 -13 -2 -13 3 0 -5 -11 -17 -23 -23 -23 -58
-32 -58 -15 0 4 -5 8 -11 8 -5 0 -7 -6 -3 -12 6 -10 5 -10 -8 0 -12 10 -18 9
-28 -3 -13 -16 -35 -10 -24 6 7 12 14 54 18 112 3 36 16 65 16 36 1 -10 4 -9
11 4 11 19 3 41 -12 32 -5 -4 -9 -1 -9 6 0 6 8 9 20 6 10 -3 19 -2 18 2 -1 3
3 17 9 31 22 53 25 70 12 70 -9 0 -8 4 3 13 20 16 31 47 16 47 -17 0 -1 131
19 145 12 9 13 14 3 20 -10 6 -9 9 1 16 10 6 14 29 14 74 0 36 3 65 8 65 4 0
6 4 3 9 -9 14 4 41 20 41 17 0 18 17 2 23 -10 4 -10 7 0 15 7 5 10 16 6 25 -4
11 0 19 10 23 9 3 16 17 16 31 0 13 6 36 14 51 7 15 17 46 21 70 4 23 11 42
16 42 5 0 9 4 9 8 0 17 -60 11 -70 -6 -9 -16 -9 -16 -10 0 0 9 9 23 21 31 15
11 17 16 7 20 -10 4 -10 6 0 6 7 1 31 20 53 42 31 32 38 44 27 50 -20 13 -28
11 -38 -13 -7 -17 -9 -4 -6 47 3 39 5 71 5 73 1 2 6 0 11 -3 6 -3 10 1 10 10
0 13 -4 14 -21 5 -21 -12 -42 -5 -23 8 5 4 9 14 9 22 0 8 2 17 6 20 3 3 9 15
13 27 6 18 4 22 -9 17 -8 -4 -20 -15 -26 -25 -16 -31 -32 -23 -25 14 14 78 15
87 4 87 -6 0 -4 8 5 18 15 17 15 19 -4 36 -20 17 -21 17 -35 -1 -13 -17 -14
-17 -8 0 5 12 2 16 -9 12 -8 -4 -17 1 -21 10 -3 9 -2 13 4 10 26 -16 5 13 -43
60 -55 54 -92 79 -105 71 -5 -3 -6 -21 -4 -40 2 -20 8 -33 13 -30 5 3 9 0 9
-5 0 -6 -5 -11 -10 -11 -6 0 -10 -6 -9 -12 3 -17 -16 -62 -33 -79 -32 -31 -37
-107 -13 -174 6 -17 5 -17 -5 -5 -9 12 -11 10 -7 -12 4 -26 1 -29 -20 -27 -10
1 -21 -31 -22 -63 -1 -16 4 -28 12 -28 9 0 9 -2 0 -8 -17 -11 -28 -83 -13 -92
9 -5 9 -17 1 -46 -11 -39 -14 -91 -4 -66 8 20 22 14 16 -8 -3 -11 -10 -20 -15
-20 -6 0 -8 -6 -5 -14 4 -10 0 -12 -14 -9 -14 4 -20 1 -19 -8 3 -20 -11 -59
-20 -59 -5 0 -7 -14 -5 -31 6 -45 -10 -72 -35 -59 -22 12 -41 13 -22 1 11 -6
9 -15 -7 -45 -23 -40 -26 -56 -11 -56 6 0 10 6 10 13 0 18 24 67 33 67 4 0 7
-9 7 -21 0 -11 4 -17 10 -14 6 3 7 -1 4 -10 -4 -9 3 -23 17 -35 29 -23 13 -27
-20 -4 -23 16 -23 16 -15 -7 12 -37 7 -57 -21 -91 -21 -25 -26 -39 -22 -64 4
-24 0 -40 -14 -58 -10 -13 -19 -29 -19 -36 0 -6 -7 -19 -16 -27 -13 -13 -13
-18 -2 -25 9 -7 7 -9 -7 -5 -25 5 -54 -21 -36 -33 9 -5 9 -15 -4 -41 -8 -19
-13 -25 -10 -15 7 26 -15 39 -31 19 -9 -14 -12 -11 -18 21 -5 24 -3 43 5 52 6
8 8 14 4 14 -4 0 1 12 11 28 10 15 17 41 16 59 -2 17 2 34 8 38 8 5 7 12 -2
22 -11 14 -10 15 10 9 17 -6 22 -3 22 9 0 9 5 15 12 13 18 -6 21 -28 4 -28
-19 0 -19 -1 -3 -34 16 -30 29 -24 21 10 -4 14 -2 24 5 24 7 0 7 8 2 23 -5 12
-15 21 -24 19 -10 -1 -17 11 -22 40 -13 70 -14 88 -6 88 14 0 21 58 11 85 -6
15 -6 26 0 30 6 4 10 -2 10 -12 1 -17 1 -17 14 0 17 22 26 22 26 -3 0 -12 7
-20 18 -20 14 0 15 2 2 10 -13 9 -13 11 0 20 10 7 12 12 4 18 -6 4 -15 18 -19
32 -4 14 -12 28 -18 32 -6 4 -5 19 5 45 8 21 14 48 13 61 -1 13 4 22 12 22 7
0 13 9 13 21 0 11 5 29 10 40 8 15 7 19 -5 19 -8 0 -15 4 -15 10 0 5 7 7 15 4
9 -4 15 0 15 10 0 9 -7 16 -16 16 -13 0 -15 9 -11 51 3 27 6 51 8 53 2 2 13 9
24 15 15 9 16 11 3 7 -24 -7 -25 36 -2 55 12 10 15 26 12 66 -4 45 -3 50 9 35
12 -15 13 -13 8 14 -6 31 13 64 36 64 5 0 9 13 9 29 0 16 6 31 15 35 11 4 13
11 5 30 -5 14 -6 28 -1 30 4 3 8 21 9 41 1 25 -3 35 -13 35 -20 0 -19 7 4 36
10 13 22 20 26 16 5 -4 5 -1 1 6 -10 17 -26 15 -26 -3 0 -8 -4 -15 -10 -15 -5
0 -10 7 -10 16 0 14 -3 14 -15 4 -13 -11 -15 -8 -15 14 0 14 -4 26 -10 26 -5
0 -7 7 -4 15 8 20 -3 19 -33 -5 -33 -26 -45 -25 -41 3 1 13 -7 32 -19 44 -22
22 -33 21 -98 -4 -23 -9 -59 -33 -50 -33 6 0 6 -3 0 -8 -22 -15 -42 -59 -49
-104 -5 -31 -14 -53 -27 -62 -14 -10 -17 -15 -7 -18 9 -3 8 -12 -7 -34 -24
-35 -49 -102 -32 -85 6 6 18 11 27 11 13 0 13 -2 0 -11 -13 -9 -13 -10 0 -6 8
2 14 12 12 22 -3 12 1 16 12 12 8 -3 18 -2 21 3 8 13 45 13 45 0 0 -5 -9 -10
-20 -10 -11 0 -20 -4 -20 -10 0 -5 7 -10 15 -10 8 0 15 -5 15 -11 0 -7 -10 -9
-25 -5 -14 4 -25 2 -25 -4 0 -5 7 -10 15 -10 9 0 18 -7 21 -15 8 -21 -16 -47
-37 -42 -10 3 -18 2 -17 -2 3 -26 -8 -46 -54 -93 -28 -29 -62 -77 -75 -105
-14 -29 -29 -53 -35 -53 -6 0 -8 -3 -5 -6 3 -4 1 -16 -5 -28 -7 -11 -12 -23
-12 -26 1 -3 -7 -13 -17 -22 -16 -16 -19 -16 -19 -2 0 8 -4 12 -10 9 -5 -3
-10 -1 -10 4 0 6 -7 11 -15 11 -8 0 -15 -4 -15 -10 0 -5 5 -10 10 -10 6 0 10
-4 10 -10 0 -5 -9 -10 -20 -10 -11 0 -20 -4 -20 -10 0 -5 5 -10 11 -10 6 0 9
-6 6 -12 -2 -7 -11 -12 -21 -10 -9 2 -16 -2 -16 -8 0 -5 8 -10 19 -10 13 0 19
-7 19 -25 0 -14 -4 -25 -9 -25 -4 0 -11 -9 -14 -20 -4 -11 -11 -18 -16 -14 -5
3 -7 9 -4 14 3 4 -2 10 -10 14 -21 8 -29 -12 -13 -31 11 -14 11 -16 -4 -11
-20 8 -34 -22 -16 -34 13 -7 11 -9 -14 -12 -15 -1 -23 -26 -9 -26 20 0 12 -18
-11 -23 -18 -5 -19 -8 -8 -21 10 -13 10 -16 -5 -16 -12 0 -16 -6 -12 -20 3
-11 0 -18 -7 -17 -6 1 -11 -7 -11 -18 0 -11 -6 -26 -13 -34 -9 -9 -10 -17 -3
-24 7 -7 5 -14 -6 -22 -27 -20 9 -58 192 -200 61 -47 239 -206 253 -227 7 -10
23 -18 35 -19 12 0 17 -3 11 -5 -7 -3 27 -42 75 -87 47 -45 112 -108 145 -139
33 -31 64 -54 70 -51 6 3 8 3 4 -1 -8 -10 31 -56 48 -56 7 0 14 6 16 12 4 10
11 10 33 0 26 -12 27 -12 15 3 -7 8 -10 18 -7 21 3 3 -10 26 -29 51 -19 24
-34 49 -34 54 0 22 32 5 71 -38 46 -52 44 -41 -5 21 -16 21 -43 47 -60 57 -31
19 -31 19 -6 19 48 0 164 -144 177 -217 6 -34 -4 -28 -27 17 -11 22 -23 40
-25 40 -3 0 1 -14 10 -30 9 -16 13 -30 10 -30 -3 0 2 -12 12 -27 l17 -28 -24
20 c-23 20 -21 7 5 -25 7 -8 19 -34 28 -57 16 -41 16 -45 -5 -88 -17 -35 -26
-44 -40 -39 -18 5 -23 -7 -19 -50 1 -11 -4 -23 -10 -27 -6 -3 -24 -37 -40 -74
l-29 -68 32 29 31 29 -28 -38 c-15 -21 -30 -36 -32 -33 -5 5 -43 -31 -43 -40
0 -4 9 -4 20 -1 11 3 20 2 20 -3 0 -4 -18 -10 -40 -14 -26 -4 -38 -10 -34 -17
3 -6 17 -9 29 -7 16 3 22 1 18 -8 -6 -15 -31 -26 -44 -19 -11 7 0 -24 15 -45
8 -10 2 -9 -18 4 l-29 18 16 -22 c9 -13 29 -31 44 -41 23 -16 25 -19 9 -19
-11 0 -33 12 -50 28 l-29 27 24 -35 c13 -19 23 -35 21 -35 -2 0 0 -8 4 -18 3
-10 0 -46 -9 -80 -10 -44 -12 -66 -5 -75 6 -7 8 -16 4 -19 -4 -4 -11 -1 -16 7
-7 11 -10 8 -15 -12 -5 -19 -12 -25 -22 -21 -12 5 -14 1 -9 -14 4 -13 0 -25
-11 -34 -15 -13 -16 -12 -9 6 5 14 4 17 -3 10 -6 -6 -11 -25 -13 -43 -1 -18
-8 -38 -14 -43 -10 -8 -14 2 -20 38 -4 26 -11 51 -16 54 -5 3 -4 17 2 33 5 15
10 44 9 64 l-1 37 -12 -35 c-8 -23 -21 -36 -37 -40 -20 -5 -21 -7 -6 -13 9 -3
17 -14 17 -23 0 -13 -3 -14 -15 -4 -13 11 -15 7 -15 -25 0 -29 -3 -36 -16 -31
-8 3 -13 2 -9 -3 3 -5 2 -17 -2 -27 -6 -16 -7 -16 -12 -1 -11 30 -39 -3 -47
-52 l-7 -44 21 21 c12 12 21 28 19 34 -1 7 5 13 13 13 8 0 21 4 28 9 10 6 11
-2 6 -36 -10 -66 -23 -81 -25 -28 l-1 45 -13 -40 c-6 -22 -9 -42 -5 -45 4 -3
12 -20 18 -37 10 -31 9 -33 -11 -34 -21 0 -21 -1 -2 -9 17 -7 17 -9 3 -9 -13
-1 -17 -8 -16 -28 3 -33 24 -60 31 -40 2 6 8 -8 13 -33 l8 -45 7 40 6 40 3
-50 c1 -27 6 -61 10 -75 7 -22 8 -21 11 15 l2 40 7 -50 c4 -32 7 -39 8 -21 2
36 12 29 22 -16 l7 -33 10 25 c10 24 11 24 18 -15 5 -21 17 -48 29 -58 12 -10
16 -16 9 -13 -6 4 -14 2 -18 -4 -8 -13 13 -52 25 -45 4 3 11 -13 15 -35 8 -46
30 -56 23 -11 -8 55 9 22 22 -41 14 -69 26 -90 36 -65 10 27 27 20 20 -9 -7
-27 -1 -51 47 -181 16 -46 34 -83 39 -83 5 0 6 5 3 10 -3 6 -1 10 4 10 6 0 11
8 11 18 1 32 67 -55 74 -98 3 -22 11 -40 16 -40 6 0 10 -15 10 -32 0 -18 5
-40 11 -48 9 -13 10 -13 8 0 -1 8 -1 26 1 40 1 23 2 23 9 5 5 -11 6 -24 3 -30
-3 -5 2 -4 11 4 20 16 23 1 5 -32 -10 -20 -10 -21 6 -8 21 18 33 7 15 -15 -12
-15 -12 -16 6 -11 15 5 23 1 31 -16 5 -12 15 -21 22 -20 6 2 9 -4 6 -12 -4 -8
-10 -15 -15 -15 -5 0 -2 -11 7 -25 9 -14 20 -22 25 -19 5 3 9 -2 9 -11 0 -9 4
-14 9 -11 5 3 8 23 6 44 -1 20 0 28 2 17 3 -11 13 -29 22 -40 10 -11 30 -47
46 -80 16 -33 35 -66 42 -73 7 -8 18 -23 25 -35 6 -12 29 -46 51 -76 50 -68
33 -58 -51 30 -36 38 -88 93 -116 122 -28 29 -63 68 -77 86 -21 26 -28 29 -33
16 -3 -9 -2 -13 4 -10 5 3 14 -3 19 -14 14 -26 14 -34 -1 -25 -7 4 -8 3 -4 -5
4 -6 11 -9 16 -6 11 7 42 -32 66 -85 4 -8 33 -49 64 -90 67 -89 78 -106 62
-96 -7 4 -12 3 -12 -3 0 -5 4 -12 9 -15 4 -3 47 -57 96 -121 48 -63 89 -115
91 -115 5 0 -35 59 -76 112 -13 16 -17 29 -10 33 5 3 10 0 10 -7 0 -19 64 -80
75 -71 4 5 6 1 2 -9 -3 -9 2 -23 12 -32 24 -21 38 -20 20 2 -8 9 -22 33 -32
52 -9 19 -24 45 -33 57 -9 13 -13 23 -8 23 5 0 18 -14 29 -30 11 -17 28 -33
38 -36 9 -3 22 -14 28 -26 8 -14 17 -18 35 -14 17 5 27 1 36 -14 7 -11 17 -20
22 -20 5 0 6 3 3 7 -4 3 -2 12 4 20 9 9 8 13 0 13 -6 0 -11 5 -11 11 0 8 15
10 45 7 54 -7 64 15 13 27 -29 6 -31 8 -13 15 11 5 15 9 9 9 -6 1 -26 15 -45
32 -19 17 -47 42 -64 56 l-30 25 28 -6 c20 -5 27 -3 22 5 -6 8 -2 8 14 0 24
-13 28 -23 6 -15 -8 4 -15 3 -15 0 0 -8 116 -66 133 -66 8 0 13 -12 12 -30 0
-16 -3 -30 -6 -30 -4 0 -10 -17 -14 -38 -4 -20 -14 -46 -23 -56 -10 -11 -11
-16 -4 -12 18 11 14 -6 -8 -32 -23 -28 -83 -54 -107 -45 -14 5 -16 3 -6 -7 9
-10 21 -10 58 -1 25 6 50 9 54 7 4 -3 75 -10 158 -16 107 -7 170 -7 219 0 38
6 98 15 134 19 75 8 144 38 192 81 38 35 45 37 53 10 3 -11 17 -28 31 -39 30
-23 63 -16 96 22 17 19 18 19 10 2 -6 -11 -10 -23 -11 -28 0 -4 -3 -22 -6 -40
-5 -23 2 -53 24 -109 17 -42 31 -82 31 -90 0 -7 9 -27 19 -44 11 -18 22 -45
24 -61 2 -16 16 -58 31 -94 14 -36 26 -73 26 -82 0 -9 4 -17 9 -17 5 0 12 -9
16 -20 3 -11 19 -27 34 -36 24 -14 32 -30 46 -91 10 -41 15 -77 11 -80 -3 -4
-6 1 -6 10 0 21 -32 38 -50 27 -8 -5 -11 -12 -7 -16 4 -4 2 -13 -4 -20 -11
-14 -3 -54 11 -54 16 0 23 22 10 30 -9 5 -9 9 -1 14 6 4 11 1 11 -6 0 -10 3
-9 11 2 9 12 10 11 6 -8 -3 -15 0 -22 9 -22 8 0 14 6 15 13 0 6 7 -10 15 -38
9 -27 26 -78 40 -112 29 -73 30 -85 7 -54 -28 37 -71 80 -75 76 -12 -12 -60
-12 -64 0 -3 7 -23 32 -45 56 l-39 42 6 -49 c4 -27 11 -57 16 -67 5 -10 7 -35
3 -56 -5 -33 -2 -41 25 -68 29 -28 163 -103 185 -103 6 0 21 -9 35 -20 l25
-20 -35 0 c-41 0 -166 27 -194 42 -10 5 -34 19 -54 29 -19 11 -35 19 -37 17
-1 -2 -5 -33 -8 -70 -6 -61 -4 -72 24 -125 25 -48 43 -66 103 -105 39 -27 77
-48 84 -48 7 0 25 -6 41 -14 36 -19 147 -34 189 -25 30 6 34 4 56 -35 13 -22
30 -68 36 -101 15 -75 63 -227 100 -320 16 -38 34 -90 40 -115 6 -25 21 -71
32 -103 l21 -57 769 0 770 0 -7 43 c-11 73 -37 157 -87 292 -128 337 -193 529
-257 755 -32 112 -40 157 -45 260 -8 155 -17 212 -66 420 -65 270 -97 372
-206 648 -57 145 -104 271 -104 280 0 9 18 34 39 57 21 22 56 72 77 110 20 39
54 101 76 138 21 38 38 71 38 74 0 3 20 35 44 72 24 36 51 82 59 101 8 19 25
60 37 90 13 30 31 73 40 95 9 22 60 171 113 330 98 296 152 496 162 601 4 32
12 88 19 124 12 62 14 342 4 590 -3 74 0 104 14 136 26 61 33 144 18 229 -12
69 -11 79 8 132 40 110 92 388 92 494 0 49 0 50 104 193 31 44 89 134 128 200
39 67 102 171 139 232 37 61 81 138 97 171 17 32 60 97 97 143 37 46 79 109
95 140 15 30 38 64 50 75 13 11 47 52 78 90 30 39 73 86 95 106 36 32 41 42
48 99 6 54 12 68 46 104 22 22 65 73 96 111 32 39 77 93 101 122 33 38 51 74
72 138 38 119 35 116 120 102 75 -13 122 -37 130 -65 3 -9 10 -25 15 -34 5
-10 9 -38 9 -62 0 -28 5 -48 14 -53 24 -14 114 -136 121 -166 4 -15 11 -30 17
-33 17 -11 58 25 58 51 0 14 5 25 10 25 6 0 10 -10 10 -22 0 -43 11 -48 78
-38 42 6 72 16 91 33 16 13 63 39 105 57 l76 34 0 1088 0 1088 -85 0 c-61 0
-85 -3 -85 -12 0 -9 -4 -8 -10 2 -8 13 -10 12 -10 -3 0 -10 -4 -16 -9 -13 -17
11 -58 -19 -77 -58 -13 -26 -20 -34 -22 -23 -2 10 -8 15 -12 12 -5 -3 -5 -16
0 -30 7 -19 6 -25 -4 -25 -21 0 -44 -42 -36 -65 4 -11 5 -26 3 -33 -4 -8 1
-10 13 -6 17 6 17 5 -1 -9 -27 -22 -35 -21 -32 4 2 18 -4 22 -30 23 -18 0 -28
-3 -23 -8 5 -5 6 -16 3 -25 -4 -14 -2 -13 10 2 17 21 27 22 27 2 0 -8 -4 -15
-10 -15 -5 0 -10 -4 -10 -10 0 -5 6 -7 14 -4 8 3 16 -3 19 -15 3 -12 16 -25
29 -30 12 -6 17 -10 11 -10 -21 -1 -15 -19 8 -26 12 -4 18 -13 15 -20 -3 -9 0
-12 10 -8 7 3 14 0 14 -6 0 -6 -8 -11 -18 -11 -28 0 -33 -10 -18 -34 8 -11 13
-42 12 -68 -1 -27 1 -48 5 -48 4 0 11 -20 15 -45 3 -25 11 -45 17 -45 12 0 3
-220 -10 -229 -5 -3 -21 -32 -36 -63 -15 -32 -31 -58 -37 -58 -5 0 -12 -11
-16 -24 -4 -17 -11 -23 -22 -19 -12 5 -14 2 -9 -11 5 -14 3 -17 -8 -12 -10 4
-15 -1 -15 -14 0 -11 -5 -20 -11 -20 -5 0 -7 5 -4 10 10 16 -11 12 -25 -5 -10
-12 -10 -15 1 -15 9 0 10 -3 4 -8 -6 -4 -16 -19 -24 -34 -14 -27 -37 -29 -27
-2 3 9 0 11 -12 7 -32 -12 -35 -16 -15 -24 13 -5 21 -16 21 -33 0 -14 -5 -23
-10 -20 -5 3 -7 12 -4 20 3 9 -2 18 -12 21 -9 4 -21 11 -25 17 -5 7 -7 2 -4
-11 3 -15 -1 -23 -12 -26 -14 -4 -14 -5 2 -6 9 0 17 -8 17 -17 0 -10 -6 -14
-15 -10 -8 3 -15 0 -16 -7 0 -7 -4 -3 -9 8 -7 16 -9 12 -9 -19 -1 -31 2 -37
11 -28 7 7 18 12 26 12 12 0 12 -3 2 -15 -14 -17 -50 -20 -50 -5 0 6 -4 10 -8
10 -19 0 -7 -32 15 -41 13 -5 23 -13 23 -18 0 -6 8 -8 18 -5 16 5 16 5 -1 -6
-9 -6 -15 -15 -12 -21 4 -5 1 -9 -4 -9 -18 0 -12 -18 7 -23 15 -4 15 -5 -2 -6
-11 0 -28 6 -38 16 -16 14 -18 14 -18 1 0 -9 7 -18 15 -22 8 -3 15 -18 15 -33
0 -17 -3 -23 -8 -16 -4 7 -16 10 -27 8 -11 -2 -23 -4 -27 -4 -5 -1 -8 -14 -8
-29 0 -37 -10 -46 -26 -24 -8 10 -13 12 -14 5 0 -18 -25 -16 -40 2 -7 9 -20
15 -28 13 -20 -4 -25 -38 -5 -38 13 0 13 -3 3 -15 -10 -12 -10 -15 1 -15 8 0
20 -10 28 -22 10 -18 11 -20 0 -10 -7 6 -22 12 -34 12 -12 0 -15 -3 -9 -8 17
-10 30 -57 14 -47 -8 5 -20 -1 -31 -16 l-19 -24 0 25 c-1 18 -3 21 -8 9 -4
-10 -18 -15 -34 -15 -23 1 -28 -3 -28 -21 0 -19 -3 -21 -23 -14 -14 6 -30 5
-42 -2 -28 -15 -79 -10 -155 15 -131 42 -195 108 -256 261 -25 62 -55 132 -69
157 -54 100 -106 210 -144 309 -51 131 -185 371 -242 434 -51 57 -85 77 -129
77 -23 0 -44 12 -83 48 -29 27 -90 78 -137 114 -47 36 -134 116 -193 177
l-108 111 -769 0 c-740 0 -770 -1 -770 -18 0 -10 3 -22 7 -25 7 -8 7 -127 -1
-134 -3 -3 1 -18 10 -34 8 -16 11 -29 7 -29 -4 0 2 -7 13 -15 10 -8 14 -15 7
-15 -7 0 -10 -6 -7 -14 3 -8 1 -17 -5 -21 -21 -13 -11 -35 17 -36 23 -2 24 -2
5 -6 -29 -5 -30 -23 -2 -23 11 0 17 -4 14 -10 -3 -5 0 -10 8 -10 9 0 14 -13
15 -37 1 -23 8 -43 19 -50 16 -12 15 -13 -3 -15 -10 0 -25 -1 -31 -1 -7 1 -10
-3 -7 -8 3 -5 23 -6 45 -3 26 4 39 3 39 -5 0 -6 -9 -11 -20 -11 -21 0 -29 -30
-7 -30 17 -1 -32 -40 -52 -41 -9 0 2 -6 24 -13 27 -8 40 -18 39 -29 -1 -11 6
-17 20 -18 15 -1 12 -3 -11 -10 -36 -10 -45 -29 -14 -29 11 0 22 -6 24 -12 3
-8 6 -6 6 5 1 24 14 21 42 -10 18 -20 20 -25 7 -20 -21 7 -24 -13 -6 -31 9 -9
8 -12 -5 -12 -9 0 -17 7 -17 15 0 8 -4 15 -10 15 -5 0 -10 -5 -10 -10 0 -6
-10 -15 -22 -20 -19 -7 -19 -9 -5 -9 10 -1 15 -6 12 -11 -5 -7 10 -9 44 -7 65
5 72 -3 19 -23 -24 -9 -44 -23 -46 -33 -2 -11 1 -15 11 -11 8 3 18 1 22 -5 4
-7 -4 -11 -19 -11 -14 0 -26 -4 -26 -10 0 -5 -5 -10 -11 -10 -5 0 -7 5 -4 10
3 6 -1 10 -9 10 -8 0 -18 -5 -21 -11 -4 -5 -18 -14 -31 -19 -36 -14 -31 -40 7
-40 24 0 30 4 25 15 -8 21 11 19 36 -5 12 -11 16 -20 10 -20 -14 0 -15 -10 -2
-30 5 -8 12 -11 17 -7 4 5 1 12 -7 17 -12 8 -10 10 7 10 16 0 21 4 17 15 -4 8
-1 15 5 15 6 0 11 -6 11 -14 0 -8 6 -17 13 -19 6 -3 3 -6 -8 -7 -20 -1 -20 -1
-1 -15 18 -14 14 -15 -43 -15 -37 0 -60 -4 -56 -10 3 -5 12 -7 19 -4 10 4 14
-2 12 -20 -1 -19 -5 -24 -18 -20 -10 3 -18 -2 -20 -13 -6 -25 11 -61 31 -66
14 -4 13 -5 -1 -6 -22 -1 -24 -21 -2 -21 8 0 13 -4 9 -9 -3 -5 3 -12 12 -14
15 -4 15 -5 2 -6 -9 0 -22 6 -29 14 -7 8 -19 15 -27 15 -13 0 -13 -3 -3 -15 7
-8 9 -15 4 -16 -5 0 5 -7 21 -14 l30 -14 -37 -1 c-41 0 -56 -14 -38 -34 8 -11
8 -15 -1 -18 -8 -3 -8 -14 -1 -41 6 -22 7 -39 1 -43 -16 -9 -10 -24 14 -34 17
-7 18 -9 5 -9 -25 -1 -23 -21 2 -21 11 0 20 -4 20 -10 0 -5 8 -7 18 -4 14 5
15 4 2 -5 -8 -6 -27 -11 -42 -11 -16 0 -28 -4 -28 -10 0 -5 7 -10 16 -10 8 0
12 -4 9 -10 -3 -6 4 -10 17 -11 17 0 19 -2 8 -7 -8 -4 -15 -17 -14 -29 2 -29
-12 -30 -19 -1 -4 12 -9 19 -13 16 -3 -4 -4 -19 0 -33 4 -17 13 -25 29 -26
l22 0 -21 -9 c-12 -5 -25 -13 -28 -19 -4 -6 -1 -9 6 -6 10 4 14 -4 14 -29 0
-28 -2 -32 -11 -19 -9 11 -14 13 -19 5 -4 -7 -2 -12 5 -12 8 0 8 -4 1 -12 -6
-7 -10 -17 -11 -23 0 -5 -10 -13 -23 -17 l-23 -6 23 -1 c14 -1 22 -6 19 -13
-2 -8 -15 -12 -30 -10 -15 2 -27 -1 -27 -6 0 -6 9 -8 20 -5 11 3 20 0 20 -6 0
-6 8 -12 18 -13 9 -1 -9 -4 -41 -7 -31 -3 -56 -10 -55 -16 2 -5 16 -8 32 -7
40 5 96 -7 96 -20 0 -6 -13 -8 -30 -6 -23 3 -31 0 -36 -14 -4 -15 -12 -18 -35
-13 -22 5 -29 3 -29 -9 0 -9 5 -16 11 -16 7 0 9 -10 5 -24 -6 -25 8 -44 19
-26 3 5 25 10 48 10 31 0 38 -3 27 -10 -8 -5 -22 -7 -31 -4 -11 3 -18 -3 -22
-17 -4 -15 -11 -20 -23 -15 -10 4 -25 -1 -36 -11 -20 -18 -20 -18 4 -25 23 -6
23 -6 1 -13 -11 -4 -24 -17 -27 -28 -5 -19 -8 -20 -16 -7 -8 12 -10 11 -10 -7
0 -24 14 -31 26 -12 5 8 10 7 16 -4 5 -10 15 -14 25 -10 11 4 14 3 9 -6 -5 -7
-15 -10 -23 -7 -9 4 -22 1 -29 -5 -11 -9 -17 -9 -28 0 -11 9 -15 8 -20 -4 -4
-13 -15 -15 -48 -11 -24 3 -61 7 -83 8 -22 2 -44 8 -48 13 -6 6 -10 6 -14 -2
-3 -9 -28 -13 -76 -12 -53 0 -67 3 -52 10 15 7 13 8 -10 3 -40 -9 -87 -6 -99
6 -7 7 -6 10 2 10 7 0 12 5 12 10 0 6 -9 10 -20 10 -11 0 -19 -6 -18 -12 2 -9
-14 -14 -50 -16 -48 -3 -53 -1 -49 15 3 10 2 50 -2 88 -5 39 -9 55 -10 37 0
-18 -7 -35 -15 -38 -8 -3 -12 -12 -9 -20 3 -9 -2 -14 -13 -15 -25 -2 -26 -2
-46 6 -13 5 -18 2 -18 -8 0 -9 8 -21 18 -26 13 -8 14 -11 2 -12 -8 0 -28 -3
-43 -5 -17 -3 -26 -1 -23 5 4 5 2 12 -4 16 -5 3 -10 -1 -10 -10 0 -11 -7 -15
-24 -13 -13 1 -31 -3 -40 -11 -14 -12 -16 -11 -16 5 0 11 -4 15 -8 9 -9 -12
-32 -18 -31 -8 1 5 0 10 -1 13 -7 15 -6 79 1 68 11 -18 38 19 32 43 -3 9 0 20
6 23 6 4 11 2 11 -3 0 -6 5 -11 11 -11 8 0 8 4 0 14 -8 10 -9 16 -1 21 5 3 10
15 10 26 0 13 7 19 21 19 15 0 19 5 14 19 -4 13 3 28 18 45 22 24 25 25 31 9
6 -14 9 -15 16 -4 5 8 15 11 25 7 15 -5 16 -4 5 9 -8 10 -24 14 -46 12 -28 -4
-33 0 -39 20 -3 13 -3 28 0 33 11 18 -18 10 -31 -7 -7 -10 -16 -14 -20 -10 -5
4 -2 12 6 18 13 8 13 10 0 19 -11 8 -8 9 13 4 21 -5 27 -3 27 10 0 9 5 16 10
16 6 0 10 -5 10 -11 0 -8 5 -8 15 1 8 7 22 9 31 6 14 -5 15 -4 4 9 -7 8 -18
15 -25 15 -8 0 -16 6 -18 13 -4 10 -6 10 -6 0 -1 -16 -21 -17 -21 -2 0 6 -7
17 -15 26 -9 8 -13 18 -9 22 4 3 9 0 11 -6 3 -7 14 -13 26 -13 12 0 18 4 12 8
-5 4 -11 16 -13 27 -2 18 -1 18 10 4 9 -11 16 -13 24 -5 13 13 -6 58 -22 52
-6 -2 -11 3 -11 11 0 12 10 14 51 9 50 -6 51 -6 23 10 -15 8 -25 19 -22 24 3
5 1 11 -4 14 -5 4 -7 21 -4 39 3 17 6 43 6 57 2 22 6 25 37 23 l35 -2 -32 11
c-18 6 -33 15 -33 21 0 5 8 6 18 2 9 -4 24 -8 32 -9 8 0 18 -8 22 -16 5 -12 7
-12 7 3 1 18 16 23 25 8 4 -5 0 -12 -6 -14 -8 -3 -6 -6 5 -6 9 -1 20 -2 25 -3
4 -2 7 50 8 115 0 88 -3 117 -12 117 -7 0 -16 -4 -19 -10 -3 -5 -2 -10 4 -10
6 0 9 -30 7 -77 l-4 -78 -53 1 -54 1 1 47 c2 52 10 68 24 46 10 -16 60 -22 60
-8 0 4 -11 8 -23 8 -22 0 -28 7 -55 63 -2 4 3 7 11 7 9 0 18 -6 20 -12 3 -7 6
-3 6 9 1 12 -5 24 -11 26 -7 2 1 3 17 1 22 -3 26 -1 15 5 -8 6 -11 14 -6 18 4
4 14 -1 23 -12 14 -20 14 -19 11 4 -4 28 -32 36 -52 15 -22 -22 -26 -17 -26
30 0 53 7 60 43 41 15 -8 27 -10 27 -5 0 4 3 16 7 25 5 14 2 16 -15 10 -13 -4
-22 -2 -22 4 0 6 6 11 13 11 9 0 8 3 -2 9 -8 5 -10 15 -6 22 4 8 -3 3 -14 -11
l-22 -25 6 25 c3 14 7 36 9 50 3 14 5 27 6 30 2 3 2 8 1 13 -1 4 8 2 19 -5 26
-17 25 -26 -2 -38 -21 -9 -21 -9 6 -7 26 2 30 7 34 37 4 37 25 60 30 34 2 -8
-1 -28 -7 -44 -6 -18 -6 -30 -1 -30 5 0 7 -13 4 -30 -4 -19 -2 -30 5 -30 7 0
11 22 11 60 0 49 3 58 15 54 8 -4 15 -1 15 5 0 6 -6 10 -12 8 -9 -1 -12 13
-10 51 3 36 0 52 -8 52 -7 0 -10 -7 -6 -15 3 -10 -1 -15 -12 -15 -14 0 -15 -2
-2 -10 8 -5 11 -13 6 -17 -4 -4 -14 1 -22 11 -19 26 -18 36 4 37 13 0 11 3 -6
10 -15 6 -21 13 -15 21 4 7 8 24 9 38 1 14 2 33 3 43 0 9 6 17 11 17 14 0 12
-37 -2 -43 -10 -4 -10 -6 0 -6 7 -1 10 -6 7 -11 -3 -6 -3 -20 0 -31 6 -17 9
-19 16 -8 7 12 9 12 9 0 0 -8 8 -4 19 10 15 19 16 26 7 31 -8 4 -11 18 -8 33
5 28 12 31 30 13 9 -9 12 -7 12 13 0 15 -3 19 -8 12 -12 -18 -33 1 -29 26 2
12 10 27 18 33 10 6 10 11 3 14 -12 5 -7 84 5 94 4 3 13 25 21 49 12 39 12 45
-2 55 -15 11 -15 13 0 24 15 9 15 12 2 21 -12 8 -10 12 10 20 14 5 19 10 13
10 -18 1 -16 30 2 37 13 5 13 8 0 21 -17 16 -21 48 -5 38 6 -3 10 -13 10 -21
0 -8 5 -12 10 -9 6 4 8 11 5 16 -4 5 2 6 12 2 16 -6 16 -5 4 10 -7 9 -20 17
-27 17 -8 0 -14 5 -14 11 0 6 7 9 15 6 8 -4 17 -2 20 3 4 6 17 10 30 10 13 0
27 5 30 10 3 6 -3 10 -14 10 -13 0 -21 7 -21 17 0 15 -2 14 -15 -3 -8 -10 -15
-14 -15 -8 0 18 26 35 42 29 9 -4 22 4 32 20 l17 25 -580 0 c-537 -1 -580 -2
-584 -18 -4 -16 -5 -16 -6 1 -1 12 -9 17 -28 16 -24 -2 -25 -2 -5 -6z m3056
-35 c7 -7 30 -29 52 -49 21 -20 50 -48 64 -64 l25 -27 -95 7 c-52 3 -103 9
-112 11 -22 6 -24 47 -3 64 8 7 12 16 10 21 -5 7 32 49 43 49 2 0 9 -6 16 -12z
m-2208 -386 c-94 -443 -123 -616 -156 -937 -30 -302 -37 -345 -79 -542 -29
-138 -36 -186 -27 -197 13 -17 92 -40 106 -31 5 3 12 -7 15 -22 3 -15 13 -49
21 -75 14 -43 14 -53 -2 -125 -17 -75 -18 -97 -11 -360 0 -27 -5 -84 -11 -128
-6 -44 -14 -111 -18 -150 -4 -38 -9 -63 -11 -55 -3 8 -16 24 -30 36 -21 18
-25 33 -33 112 -4 49 -20 129 -34 176 -23 74 -25 91 -15 129 6 24 9 57 7 73
-4 26 -5 25 -13 -14 -4 -23 -11 -45 -15 -47 -5 -3 -32 41 -61 97 -28 57 -58
107 -66 112 -26 15 -52 85 -43 117 9 30 40 80 40 64 0 -5 7 0 15 11 8 11 14
41 15 72 0 29 5 85 12 123 8 53 8 90 -1 152 -12 88 -59 240 -71 232 -4 -3 -7
3 -6 13 1 19 0 19 -65 8 -78 -13 -281 25 -346 65 -18 12 -46 40 -62 63 -29 41
-29 43 -13 68 l17 26 60 -20 c53 -17 82 -19 242 -15 101 2 181 1 178 -1 -3 -3
4 -12 15 -19 11 -8 17 -19 13 -26 -3 -6 -7 -22 -8 -36 -1 -14 -5 -37 -9 -50
-6 -16 -5 -21 3 -17 6 4 11 14 11 21 0 8 9 19 20 25 16 9 20 21 20 69 l0 59
53 25 c92 46 111 70 130 171 10 49 42 179 72 290 73 272 102 391 110 451 7 55
27 139 53 225 15 49 17 52 20 25 1 -16 -18 -126 -42 -243z m1307 -38 c-5 -13
-2 -15 15 -10 12 4 31 2 43 -5 19 -10 25 -9 36 7 7 10 14 14 15 8 0 -5 2 -13
3 -19 2 -5 3 -18 4 -27 1 -14 6 -15 31 -8 36 10 70 2 70 -16 0 -8 6 -14 13
-14 8 0 14 -7 14 -15 0 -8 -4 -15 -9 -15 -12 0 -10 -48 3 -72 14 -25 10 -28
-36 -30 -27 -1 -39 -6 -42 -19 -4 -14 -12 -16 -37 -12 -22 3 -38 0 -49 -11 -9
-10 -23 -13 -34 -9 -13 4 -12 1 6 -16 26 -22 22 -43 -4 -21 -10 8 -15 9 -15 2
0 -6 -7 -9 -15 -6 -8 4 -15 1 -15 -4 0 -6 23 -9 58 -8 37 2 62 -2 70 -10 7 -8
8 -15 2 -19 -6 -3 -10 -2 -10 3 0 13 -39 22 -46 11 -3 -5 -20 -7 -37 -4 -19 3
-27 2 -19 -3 14 -10 7 -38 -17 -62 -13 -13 -14 -13 -9 5 3 11 7 26 9 34 2 7
-2 16 -10 18 -10 4 -11 0 -6 -17 5 -16 3 -21 -6 -18 -7 2 -16 15 -20 29 -7 24
-7 24 -8 -3 -1 -16 4 -28 9 -28 6 0 10 -4 10 -10 0 -5 -16 -10 -36 -10 -34 0
-36 2 -32 29 3 23 0 31 -16 35 -11 3 -28 -1 -37 -10 -14 -13 -18 -13 -29 1
-14 17 -35 21 -25 5 3 -5 1 -10 -4 -10 -6 0 -11 5 -11 10 0 6 -4 10 -10 10 -5
0 -7 -7 -4 -15 4 -8 1 -15 -6 -15 -23 0 -5 35 20 38 14 2 29 7 34 12 4 4 23 2
41 -6 31 -13 34 -12 40 6 3 11 3 25 -1 32 -5 8 -2 9 9 5 10 -4 20 0 25 10 8
13 10 13 14 -5 4 -14 1 -19 -11 -18 -9 0 -16 -7 -16 -16 0 -10 3 -18 8 -18 4
0 21 0 39 0 29 0 30 1 13 13 -12 9 -16 22 -13 38 4 22 0 25 -24 27 -15 1 -28
-2 -28 -8 0 -6 -6 -10 -12 -9 -28 3 -39 -2 -36 -17 5 -30 -17 -25 -29 6 -11
28 -10 30 14 30 22 0 24 2 13 15 -11 13 -10 15 6 14 11 -1 34 -1 53 -1 28 2
31 4 21 16 -6 8 -18 12 -26 9 -7 -3 -17 2 -20 11 -3 9 -17 16 -30 16 -21 0
-24 -5 -24 -35 0 -24 -5 -35 -15 -35 -8 0 -15 -7 -15 -15 0 -9 -6 -12 -16 -8
-13 5 -13 7 -2 14 11 7 10 11 -2 19 -12 9 -10 10 10 8 22 -3 25 0 23 30 l-2
32 55 0 c33 0 54 4 54 11 0 7 -12 10 -30 7 -16 -3 -30 -1 -30 4 0 4 10 8 23 8
22 1 22 1 -3 15 -24 14 -16 20 18 16 8 -1 19 3 27 9 8 7 15 7 19 1 3 -5 16 -7
28 -4 13 4 25 0 33 -11 12 -15 13 -14 11 8 0 14 -6 25 -13 23 -6 -1 -11 3 -10
8 1 6 10 9 20 8 11 -2 17 4 17 17 0 11 -5 20 -11 20 -5 0 -7 -4 -4 -10 4 -6
-5 -10 -20 -10 -21 0 -26 4 -21 16 3 9 6 20 6 25 0 5 4 9 10 9 5 0 7 -7 3 -16z
m54 -416 c-3 -17 36 -18 48 -2 9 13 11 12 11 -5 0 -11 -3 -19 -6 -18 -3 1 -6
-2 -6 -8 -1 -5 3 -9 9 -7 6 2 6 -3 -2 -11 -15 -19 6 -29 33 -15 15 8 16 12 5
19 -11 7 -10 9 4 9 10 0 17 -7 17 -17 0 -12 8 -18 26 -19 35 -3 42 -13 20 -30
-19 -13 -18 -14 12 -14 19 0 35 -7 40 -17 9 -16 11 -16 27 0 25 26 56 22 51
-5 -3 -13 -5 -26 -5 -30 -1 -5 -8 -8 -16 -8 -13 0 -14 4 -5 20 7 14 7 20 0 20
-5 0 -10 -4 -10 -10 0 -5 -13 -10 -30 -10 -20 0 -30 5 -30 15 0 8 -7 15 -16
15 -11 0 -14 -5 -10 -16 4 -9 1 -23 -5 -30 -9 -11 -8 -15 4 -20 9 -3 13 -12
10 -20 -3 -8 -1 -14 4 -14 15 0 12 -33 -5 -52 -14 -17 -12 -18 21 -18 34 0 51
14 27 22 -6 2 -13 21 -17 43 -4 31 -3 38 7 29 9 -9 18 -9 37 1 26 14 53 10 53
-6 0 -5 6 -9 14 -9 15 0 28 -48 15 -56 -5 -3 -13 5 -18 18 -10 23 -10 22 -10
-4 -1 -23 3 -28 23 -28 13 0 29 -7 36 -15 9 -10 9 -15 1 -15 -6 0 -11 -8 -11
-17 0 -15 2 -16 10 -3 8 13 10 12 10 -2 0 -10 -7 -18 -15 -18 -8 0 -15 -5 -15
-11 0 -5 5 -7 10 -4 6 3 10 -1 10 -9 0 -21 9 -20 27 2 14 16 14 16 9 0 -3 -10
-1 -18 4 -18 6 0 10 -4 10 -9 0 -5 -15 -8 -34 -7 -29 3 -35 -1 -41 -21 -3 -13
-3 -28 0 -33 4 -6 1 -10 -4 -10 -11 0 -15 12 -12 43 3 21 -13 22 -33 1 -15
-14 -16 -14 -16 1 0 13 -9 16 -37 15 -21 -1 -40 -1 -43 0 -3 1 -28 3 -55 4
-63 3 -83 13 -59 30 16 12 15 13 -5 19 -14 3 -19 10 -15 21 5 13 -2 16 -46 16
-31 0 -49 4 -45 10 3 6 17 10 31 10 29 0 30 4 4 30 -11 11 -22 20 -25 20 -3 0
-5 -9 -5 -20 0 -11 -4 -20 -10 -20 -5 0 -9 10 -7 22 2 20 -2 22 -37 19 -25 -2
-36 1 -32 8 4 6 3 11 -1 11 -5 0 -17 16 -27 35 -11 19 -25 35 -32 35 -7 0 -18
8 -24 18 -9 14 -10 13 -4 -8 6 -22 5 -23 -10 -8 -9 9 -13 23 -10 31 5 13 -27
31 -48 28 -5 -1 -8 3 -8 8 0 5 17 12 38 16 35 7 35 8 12 15 -22 6 -23 8 -7 15
9 4 17 13 17 21 0 18 26 18 33 0 4 -11 1 -13 -11 -9 -15 6 -15 4 -4 -10 15
-18 46 -11 38 9 -8 21 5 49 15 33 6 -10 11 -10 25 2 13 10 16 10 10 1 -5 -9
-3 -13 5 -11 32 4 59 -2 73 -16 13 -14 15 -13 13 4 0 11 -5 17 -9 15 -4 -3 -8
1 -8 8 0 8 9 14 20 15 11 1 19 -3 17 -9z m-1553 -2190 c14 -63 34 -223 30
-228 -3 -2 -10 3 -15 13 -6 9 -17 17 -24 17 -8 0 -15 4 -15 8 0 5 -36 7 -79 4
l-80 -4 -45 38 c-27 23 -45 48 -46 60 0 19 7 22 68 27 37 4 93 7 125 7 l57 0
0 40 c0 43 17 55 24 18z m-359 -2715 c-12 -56 -28 -103 -37 -103 -4 0 -8 -16
-8 -36 0 -19 -5 -44 -10 -54 -11 -21 -20 -97 -24 -197 -1 -34 -8 -68 -14 -76
-7 -8 -10 -23 -6 -33 4 -14 3 -16 -4 -5 -8 11 -11 9 -17 -8 -9 -31 -3 -233 8
-248 5 -7 6 -13 1 -13 -5 0 -10 -41 -12 -92 -1 -60 -6 -94 -14 -100 -7 -4 -11
-21 -10 -38 2 -17 -1 -30 -8 -30 -6 0 -8 -4 -5 -10 3 -5 0 -10 -7 -10 -20 0
-40 49 -27 69 8 13 9 11 4 -6 -5 -17 -2 -23 9 -23 10 0 14 9 13 28 -1 17 3 26
11 25 9 -2 12 17 12 72 0 47 4 75 11 75 6 0 3 7 -6 16 -13 14 -14 19 -3 25 10
7 9 9 -4 9 -10 0 -19 8 -19 18 -1 15 -2 15 -6 1 -2 -10 -13 -19 -24 -22 -14
-4 -21 1 -25 19 -4 14 -4 28 0 31 3 3 1 11 -4 18 -6 7 -5 23 3 44 9 26 9 33
-2 40 -8 6 -11 17 -6 32 5 19 4 21 -4 9 -9 -12 -11 -11 -11 7 0 12 5 25 10 28
6 3 10 17 10 31 0 22 -9 28 -36 25 -7 -1 -14 8 -17 19 -4 17 -2 18 14 10 17
-10 18 -8 10 13 -6 16 -6 28 1 35 6 6 5 20 -6 40 -18 35 -21 56 -6 47 5 -3 10
4 9 17 0 38 13 81 34 110 14 19 18 34 13 55 -4 16 -3 23 2 16 5 -9 13 -3 26
19 32 54 76 87 76 57 0 -5 4 -8 8 -5 4 2 6 -12 5 -32 -3 -37 -3 -36 13 11 17
47 29 58 37 35 2 -7 3 -1 1 15 -3 21 1 27 16 27 11 0 20 5 20 10 0 6 2 10 5
10 3 0 3 -12 0 -27z m744 -1690 l-24 -28 24 20 c19 16 25 17 29 6 4 -11 6 -11
13 0 5 9 10 4 15 -16 5 -19 3 -30 -4 -33 -7 -2 -12 -13 -13 -25 0 -19 -1 -20
-8 -4 -5 15 -9 11 -21 -20 -8 -21 -15 -40 -15 -43 -8 -28 -19 -40 -26 -29 -5
9 -10 4 -15 -15 -5 -20 -9 -24 -15 -14 -7 10 -9 8 -9 -7 -1 -18 -2 -18 -10 3
-5 12 -14 22 -20 22 -5 0 -10 10 -11 23 0 15 -5 10 -15 -18 l-13 -40 5 39 c5
33 44 105 44 81 0 -4 7 -2 15 5 8 7 14 18 13 25 -4 16 59 95 74 95 6 0 1 -12
-13 -27z"/>
<path d="M12950 9991 c0 -6 5 -13 10 -16 6 -3 10 -1 10 5 0 13 50 -12 98 -48
18 -14 35 -22 38 -19 6 5 15 0 49 -30 7 -7 21 -13 31 -13 10 0 26 -7 36 -17
14 -13 18 -13 18 -2 1 10 5 9 15 -5 7 -10 18 -15 24 -11 6 3 11 0 11 -8 0 -9
10 -14 25 -14 14 0 37 -12 51 -26 14 -14 32 -23 40 -20 9 3 14 -1 14 -12 0
-12 5 -15 19 -10 15 5 23 -2 36 -30 20 -40 23 -42 41 -17 12 16 15 15 38 -11
19 -22 34 -29 61 -29 23 0 35 -5 35 -14 0 -8 10 -14 26 -14 14 0 23 -4 20 -9
-3 -5 13 -11 36 -14 24 -3 44 -11 46 -16 2 -6 14 -11 26 -11 12 0 28 -6 34
-12 10 -10 15 -10 22 2 8 13 10 12 10 -2 0 -11 8 -18 20 -18 11 0 20 5 20 10
0 6 5 10 10 10 6 0 10 -9 10 -19 0 -11 5 -23 12 -27 7 -5 8 -3 4 5 -6 9 0 11
20 8 40 -5 65 -17 58 -28 -3 -5 10 -7 30 -3 24 3 36 1 36 -6 0 -7 7 -10 15 -6
8 3 15 1 15 -4 0 -6 8 -10 17 -10 9 0 25 -8 35 -17 18 -16 34 -20 91 -22 13
-1 17 -8 15 -28 -2 -19 2 -28 12 -28 8 -1 14 -6 13 -13 -5 -20 316 -13 343 7
l21 16 -21 22 c-11 13 -28 23 -36 23 -8 0 -21 9 -28 20 -7 12 -17 18 -22 15
-5 -3 -10 7 -12 22 -3 25 -7 28 -40 27 -33 -1 -38 2 -38 22 0 28 -17 41 -23
17 -3 -12 -7 -7 -12 15 -6 24 -10 30 -17 20 -7 -11 -11 -10 -21 3 -6 9 -18 14
-26 11 -10 -3 -12 0 -8 12 4 9 2 16 -4 16 -6 0 -8 7 -5 17 8 20 -10 33 -47 33
-21 0 -27 4 -25 18 2 13 -3 16 -20 14 -19 -2 -22 2 -17 17 3 11 1 22 -4 26 -7
3 -8 0 -5 -9 3 -9 2 -16 -4 -16 -14 0 -33 26 -25 33 3 4 -1 7 -11 7 -9 0 -14
-4 -11 -10 10 -16 -1 -11 -16 7 -10 11 -10 14 -1 9 7 -4 12 -1 12 9 0 9 -4 14
-9 10 -16 -9 -25 16 -10 27 10 7 7 7 -9 3 -15 -4 -24 -2 -28 9 -3 8 -15 18
-26 22 -11 3 -17 12 -14 19 5 15 -14 25 -46 25 -16 0 -18 3 -10 13 9 10 7 19
-5 36 -9 14 -18 19 -22 13 -4 -7 -12 -8 -21 -1 -13 8 -13 10 0 19 10 6 -168 9
-507 10 -327 0 -523 -3 -523 -9z"/>
<path d="M9003 7588 c1 -15 5 -26 10 -25 5 1 15 -8 23 -19 14 -20 13 -21 -13
-21 -15 0 -29 -5 -31 -11 -2 -6 -10 -8 -18 -5 -8 3 -14 3 -14 1 0 -3 39 -22
88 -43 86 -38 164 -83 170 -97 5 -11 34 -10 51 1 11 7 9 11 -9 21 -18 9 -21 9
-15 0 5 -8 3 -11 -6 -8 -8 3 -13 13 -13 22 2 15 -8 21 -29 17 -5 -1 -6 3 -3 8
3 5 -9 21 -26 35 -18 14 -40 31 -49 39 -8 7 -20 12 -26 10 -10 -4 -55 43 -80
83 -11 17 -12 17 -10 -8z"/>
<path d="M9068 7333 c-30 -51 -55 -73 -82 -73 -31 0 -106 36 -106 50 0 6 -5
10 -10 10 -26 0 30 -55 108 -107 48 -31 97 -66 109 -76 13 -11 45 -28 72 -38
56 -19 75 -35 118 -99 37 -55 281 -306 294 -302 5 1 9 -4 9 -12 0 -7 22 -34
49 -59 26 -25 58 -60 69 -79 31 -50 70 -93 78 -86 13 14 -7 75 -32 97 -18 16
-24 29 -20 45 4 17 1 22 -15 23 -12 1 -23 4 -26 7 -2 2 -12 59 -22 126 -17
118 -19 124 -52 153 -19 16 -92 82 -163 146 l-128 115 31 15 c17 8 31 17 31
20 0 3 -14 14 -31 23 l-30 18 -10 -30 c-8 -20 -19 -31 -40 -35 -38 -9 -52 4
-115 101 -26 40 -53 74 -59 74 -6 0 -18 -12 -27 -27z"/>
<path d="M8090 5588 c0 -78 2 -139 5 -136 4 4 35 214 35 236 0 2 7 -1 16 -9
20 -16 16 -56 -21 -234 -14 -67 -16 -116 -10 -305 13 -478 18 -542 39 -595 7
-16 11 -46 10 -65 -2 -25 -1 -30 5 -15 7 18 9 17 25 -13 19 -36 41 -42 49 -12
3 11 2 18 -3 15 -4 -3 -10 1 -13 9 -5 14 51 63 66 58 5 -1 6 2 3 7 -9 14 12
63 24 56 6 -4 9 -1 8 7 -2 8 5 12 20 11 14 -2 22 3 22 12 0 8 6 15 13 15 6 0
12 13 13 30 1 17 -2 30 -7 30 -4 0 -4 14 1 30 5 18 5 30 -1 30 -5 0 -9 7 -9
15 0 8 -4 15 -10 15 -5 0 -10 4 -10 10 0 5 8 7 18 3 13 -4 14 -3 6 6 -16 17
-41 3 -53 -29 -7 -21 -6 -30 2 -33 7 -2 10 -7 7 -10 -3 -3 -14 1 -25 9 -16 12
-17 17 -7 23 11 7 11 9 -2 14 -12 5 -16 0 -16 -22 0 -16 6 -31 13 -34 6 -2 0
-4 -16 -4 -15 0 -30 3 -33 8 -3 5 2 6 11 3 11 -5 14 -2 9 10 -3 8 -9 15 -12
14 -19 -2 -32 3 -32 13 0 6 9 9 20 6 11 -3 18 -1 14 4 -3 5 -13 9 -22 10 -10
1 -7 4 8 8 22 6 25 12 24 54 -1 42 2 47 22 47 13 0 26 5 29 10 3 6 14 10 23
10 15 -1 15 -2 -2 -15 -11 -8 -15 -15 -9 -15 7 0 19 8 28 17 16 16 16 17 -1
30 -15 11 -16 13 -2 13 9 0 18 6 21 13 3 8 12 5 29 -10 28 -27 58 -33 38 -8
-10 12 -10 15 3 15 8 0 17 -4 19 -10 2 -5 3 20 4 56 1 41 6 69 13 74 10 5 10
17 2 47 -15 56 -10 141 9 156 13 10 13 10 2 -5 -10 -12 -10 -18 -1 -23 7 -5 9
-21 6 -44 -4 -22 -1 -45 8 -61 14 -23 14 -19 10 47 -2 47 0 75 8 80 6 3 13 1
15 -5 2 -7 7 -10 11 -8 8 6 3 -146 -6 -184 -12 -48 -12 -55 0 -62 9 -6 8 -8
-3 -8 -19 0 -19 -73 0 -112 15 -32 30 -37 30 -10 0 13 2 14 9 3 7 -11 9 -11
14 0 4 11 6 11 7 -1 0 -8 12 19 25 60 14 41 23 80 21 86 -7 17 9 35 25 28 8
-3 33 -28 57 -55 23 -27 42 -45 42 -39 0 5 -22 35 -50 65 -36 40 -51 64 -52
88 -2 43 -5 80 -7 93 0 7 -40 45 -88 85 -49 40 -128 112 -178 160 -188 180
-296 279 -307 279 -5 0 -8 -64 -8 -142z"/>
<path d="M10310 1760 c0 -11 21 -42 48 -69 26 -27 68 -73 95 -102 55 -61 71
-57 56 11 -11 48 -42 82 -134 146 -58 39 -65 41 -65 14z"/>
</g>
</svg>
